<svg width="527" height="103" viewBox="0 0 527 103" fill="none" xmlns="http://www.w3.org/2000/svg">
<path d="M21.2173 49.2402V49.492C25.9379 49.8067 29.7774 54.1497 29.7774 59.3109C29.7774 68.3745 22.9167 72.9692 15.9932 72.9692H2.52365V28.9101H14.4196C23.4203 28.9101 27.8891 33.4419 27.8891 39.736C27.8891 45.0861 24.5532 48.1702 21.2173 49.2402ZM13.4755 37.0925H11.9649V46.5337L13.2867 46.0931C16.5596 44.9602 18.5738 43.8902 18.5738 40.9319C18.5738 38.6031 16.8114 37.0925 13.4755 37.0925ZM11.9649 64.7868H13.979C17.8185 64.7868 20.2103 62.6468 20.2103 58.9962C20.2103 55.3456 17.6296 52.0097 12.2167 53.8979L11.9649 53.9609V64.7868ZM44.582 66.0457C46.5331 66.0457 48.0437 64.4092 49.2396 61.8286L57.2332 65.1645C54.8415 71.018 50.3726 73.4728 45.0855 73.4728C36.3995 73.4728 31.0495 66.5492 31.0495 56.1009C31.0495 46.282 36.3995 38.729 44.7078 38.729C52.4497 38.729 57.2332 44.4567 57.8627 53.0167L39.9872 60.5068C40.5537 64.1574 41.9384 66.0457 44.582 66.0457ZM44.582 45.9043C41.4349 45.9043 40.1131 48.9255 39.7984 53.835L49.1138 49.8696C48.4843 47.352 46.9108 45.9043 44.582 45.9043ZM83.236 72.9692H58.6888V64.1574L73.48 45.7784L73.2283 45.5896C71.8436 46.9114 67.8782 47.2261 65.4865 47.2261H59.4441V39.2325H82.4178V47.7296L67.6894 66.3604L67.9412 66.5492C69.3888 65.1645 73.1653 64.9756 75.6201 64.9756H83.236V72.9692ZM97.3389 38.729C104.892 38.729 108.668 42.7572 108.668 51.0655V72.9692H100.549V68.4374H100.297C99.4789 71.018 96.9612 73.4728 92.8071 73.4728C87.457 73.4728 84.3729 69.3186 84.3729 64.2833C84.3729 57.4856 88.0865 53.5203 95.7653 52.8908L100.108 52.5761V49.9326C100.108 46.6596 98.9754 45.5267 96.8353 45.5267C94.9471 45.5267 93.3736 46.9743 93.3106 49.7438L85.4429 48.9885C86.0094 43.1349 89.9747 38.729 97.3389 38.729ZM96.2689 66.2974C98.8495 66.2974 100.108 64.0945 100.108 61.0733V57.8632L98.4089 58.0521C94.6324 58.4927 93.0588 60.1921 93.0588 62.8356C93.0588 64.9127 94.1918 66.2974 96.2689 66.2974ZM121.287 72.9692H112.601V27.2736H121.287V37.3443C121.287 38.666 120.594 42.6314 119.839 44.9602L120.091 45.0861C121.727 40.7431 124.749 38.729 129.154 38.729C135.008 38.729 137.777 43.1978 137.777 49.7438V72.9692H129.091V51.0655C129.091 47.6667 127.644 46.0302 125.441 46.0302C122.483 46.0302 121.287 48.7996 121.287 52.8908V72.9692ZM150.1 72.9692H141.414V27.2736H150.1V72.9692ZM166.273 66.0457C168.224 66.0457 169.735 64.4092 170.931 61.8286L178.925 65.1645C176.533 71.018 172.064 73.4728 166.777 73.4728C158.091 73.4728 152.741 66.5492 152.741 56.1009C152.741 46.282 158.091 38.729 166.399 38.729C174.141 38.729 178.925 44.4567 179.554 53.0167L161.679 60.5068C162.245 64.1574 163.63 66.0457 166.273 66.0457ZM166.273 45.9043C163.126 45.9043 161.804 48.9255 161.49 53.835L170.805 49.8696C170.176 47.352 168.602 45.9043 166.273 45.9043ZM200.587 72.9692H191.649V39.2325H199.957V44.2049H200.209C201.216 41.6872 203.104 38.729 207.636 38.729C211.979 38.729 213.993 41.8131 214.749 44.4567H215C215.945 42.3796 218.273 38.729 223.498 38.729C228.974 38.729 232.372 42.1278 232.372 49.4291V72.9692H223.435V51.3173C223.435 47.7296 222.176 46.0302 219.91 46.0302C217.455 46.0302 216.448 48.2332 216.448 50.6249V72.9692H207.51V51.3173C207.51 47.7296 206.315 46.0302 204.049 46.0302C201.594 46.0302 200.587 48.359 200.587 51.8208V72.9692ZM240.293 36.0225C237.272 36.0225 234.943 33.6936 234.943 30.6724C234.943 27.6512 237.272 25.3853 240.293 25.3853C243.377 25.3853 245.706 27.6512 245.706 30.6724C245.706 33.6936 243.377 36.0225 240.293 36.0225ZM244.699 72.9692H235.95V39.2325H244.699V72.9692ZM262.259 73.4728C255.335 73.4728 251.055 69.2557 251.055 60.8215V46.1561H246.272V39.2325H247.153C249.733 39.2325 251.055 37.9107 251.055 35.3301V31.3648H259.804V34.7636C259.804 37.0295 258.86 38.1625 257.664 38.9807V39.2325H265.343V46.1561H259.804V61.0733C259.804 63.9056 261.315 65.0386 263.518 65.0386C264.021 65.0386 264.651 64.9756 265.343 64.9127V73.2839C264.525 73.4098 263.518 73.4728 262.259 73.4728Z" fill="black"/>
<path d="M284.17 51.3397C284.17 30.5924 284.17 20.2187 289.26 12.8307C291.252 9.93976 293.755 7.43685 296.646 5.4451C304.034 0.35498 314.407 0.35498 335.155 0.35498L475.513 0.35498C496.26 0.35498 506.634 0.35498 514.022 5.4451C516.913 7.43685 519.416 9.93976 521.407 12.8307C526.497 20.2187 526.497 30.5924 526.497 51.3397V51.3397C526.497 72.087 526.497 82.4607 521.407 89.8487C519.416 92.7397 516.913 95.2426 514.022 97.2343C506.634 102.324 496.26 102.324 475.513 102.324L335.155 102.324C314.407 102.324 304.034 102.324 296.646 97.2343C293.755 95.2426 291.252 92.7397 289.26 89.8487C284.17 82.4607 284.17 72.087 284.17 51.3397V51.3397Z" fill="#FFA8CD"/>
<path d="M479.444 65.4064C475.216 65.4064 471.921 61.9102 471.921 57.6648C471.921 53.4194 475.216 49.9232 479.444 49.9232C483.672 49.9232 486.968 53.4194 486.968 57.6648C486.968 61.9102 483.672 65.4064 479.444 65.4064ZM477.33 73.5851C480.937 73.5851 485.538 72.2116 488.087 66.8424L488.336 66.9672C487.217 69.9016 487.217 71.6497 487.217 72.0867V72.7734H496.295V42.5562H487.217V43.2429C487.217 43.68 487.217 45.4281 488.336 48.3624L488.087 48.4873C485.538 43.1181 480.937 41.7446 477.33 41.7446C468.688 41.7446 462.594 48.6121 462.594 57.6648C462.594 66.7175 468.688 73.5851 477.33 73.5851ZM446.801 41.7446C442.697 41.7446 439.464 43.1805 436.852 48.4873L436.604 48.3624C437.723 45.4281 437.723 43.68 437.723 43.2429V42.5562H428.645V72.7734H437.972V56.8532C437.972 52.6702 440.397 50.0481 444.314 50.0481C448.231 50.0481 450.159 52.2956 450.159 56.7908V72.7734H459.485V53.5443C459.485 46.6767 454.138 41.7446 446.801 41.7446ZM415.152 48.4873L414.904 48.3624C416.023 45.4281 416.023 43.68 416.023 43.2429V42.5562H406.945V72.7734H416.272L416.334 58.2267C416.334 53.9813 418.572 51.4216 422.241 51.4216C423.236 51.4216 424.044 51.5464 424.976 51.7962V42.5562C420.873 41.6821 417.204 43.2429 415.152 48.4873ZM385.494 65.4064C381.265 65.4064 377.97 61.9102 377.97 57.6648C377.97 53.4194 381.265 49.9232 385.494 49.9232C389.722 49.9232 393.017 53.4194 393.017 57.6648C393.017 61.9102 389.722 65.4064 385.494 65.4064ZM383.379 73.5851C386.986 73.5851 391.587 72.2116 394.136 66.8424L394.385 66.9672C393.266 69.9016 393.266 71.6497 393.266 72.0867V72.7734L402.344 72.7734V42.5562L393.266 42.5562V43.2429C393.266 43.68 393.266 45.4281 394.385 48.3624L394.136 48.4873C391.587 43.1181 386.986 41.7446 383.379 41.7446C374.737 41.7446 368.643 48.6121 368.643 57.6648C368.643 66.7175 374.737 73.5851 383.379 73.5851ZM355.648 72.7734H364.975V29.0708L355.648 29.0708V72.7734ZM348.809 29.0708H339.295C339.295 36.8748 334.508 43.8673 327.233 48.8619L324.373 50.8597V29.0708H314.486V72.7734H324.373V51.1094L340.725 72.7734H352.788L337.057 52.0459C344.207 46.864 348.871 38.8102 348.809 29.0708Z" fill="black"/>
</svg>
