<?xml version='1.0' encoding='utf-8'?>
<svg xmlns="http://www.w3.org/2000/svg" width="210mm" height="210mm" version="1.1" viewBox="0 0 210 210"> <g> <path d="m14.718 17.75h180v180h-180z" fill="#f9f9f9" stroke="#f9f9f9" stroke-dashoffset="56.693" stroke-linecap="round" stroke-linejoin="round" stroke-miterlimit="4" stroke-width=".5" style="paint-order:stroke fill markers"/> <path d="m104.7 40.993-15.321 11.155 30.874 0.12114zm-47.915 34.886-15.53 11.308 5.8745 18.018zm96.111 0.05566 9.4255 29.401 5.9183-18.277zm-93.269 67.603 5.9547 18.264 18.952-0.019zm90.274 0.15508-25.049 18.05 19.211-0.0193z" fill="#87decd" stroke="#87decd" stroke-dashoffset="56.693" stroke-linecap="round" stroke-linejoin="round" stroke-width=".2476" style="paint-order:stroke fill markers"/> <path d="m65.741 53.59-6.0078 18.247 24.96-18.173zm59.27 0.23198 24.996 18.123-5.7858-18.048zm-77.887 56.311-5.9271 18.001 15.497 11.353zm115.19 0.20565-9.5112 29.373 15.376-11.079zm-42.222 52.943-30.875 0.0313 15.289 11.2z" fill="#216778" stroke="#216778" stroke-dashoffset="56.693" stroke-linecap="round" stroke-linejoin="round" stroke-width=".2476" style="paint-order:stroke fill markers"/> <path d="m120.05 83.488c-0.10113 0-0.88879 0.17583-1.2485 0.27868-1.5248 0.4361-2.2158 0.63971-2.467 0.72706-0.13844 0.04815-0.38766 0.12742-0.55381 0.17612-0.16613 0.04868-0.34738 0.10671-0.40276 0.12902-0.0553 0.02231-0.16864 0.05547-0.2517 0.07355-0.0831 0.01816-0.21902 0.06295-0.30209 0.09962-0.0831 0.03665-0.26434 0.09267-0.40278 0.12449-0.23253 0.05345-0.8883 0.25485-2.253 0.69186-0.29766 0.09535-0.54123 0.19586-0.54123 0.22334 0 0.02743-0.0199 0.03765-0.0441 0.02258-0.0242-0.015-0.14317 0.0045-0.26431 0.04336-0.12115 0.03885-0.62808 0.19777-1.1265 0.35312-0.49843 0.15536-0.97421 0.30628-1.0573 0.33543-0.083 0.02909-0.3776 0.11811-0.65449 0.19784-0.2769 0.07975-0.85464 0.26659-1.2838 0.41516-0.42921 0.14855-1.0862 0.36675-1.4601 0.48487-0.37382 0.11815-0.759 0.24401-0.8559 0.27977-0.54117 0.19961-1.2766 0.45137-1.9887 0.68067-0.44307 0.14266-1.0888 0.36273-1.4349 0.4891-0.34615 0.1264-0.83326 0.30414-1.0825 0.3949-0.69745 0.25412-1.3886 0.5211-1.6111 0.62247-0.42399 0.19311-0.66557 0.29926-0.98176 0.4313-0.17996 0.07518-0.36124 0.16544-0.40276 0.20059-0.04152 0.03514-0.10248 0.05419-0.13538 0.04217-0.03295-0.01197-0.11267 0.01267-0.17711 0.05499-0.06447 0.04222-0.21028 0.10963-0.32402 0.14976-0.33234 0.11726-0.77317 0.33709-0.77317 0.38556 0 0.02458-0.09629 0.07125-0.21399 0.10365-0.3393 0.09339-0.74479 0.24106-1.0447 0.38044-0.15232 0.07077-0.34489 0.15856-0.42795 0.19509-0.08309 0.03654-0.27186 0.12484-0.41951 0.19629-0.14765 0.07141-0.29184 0.12988-0.32043 0.12988-0.02854 0-0.22501 0.08171-0.43642 0.18154-0.21141 0.09981-0.46373 0.21023-0.56063 0.24544-0.31451 0.11426-1.449 0.68868-2.0394 1.0326-0.16597 0.09667-0.33568 0.19393-0.37723 0.21603-0.04152 0.02209-0.21144 0.11788-0.3776 0.21289-0.16615 0.095-0.3644 0.201-0.44053 0.2356-0.07616 0.03458-0.13888 0.09753-0.13946 0.13993 0 0.04238-0.06846 0.1768-0.15103 0.29866-0.08257 0.12182-0.15004 0.2514-0.15004 0.28791 0 0.10958-0.2066 0.47962-0.43228 0.77438-0.11663 0.1523-0.27186 0.3902-0.34495 0.52865-0.07315 0.13845-0.18889 0.32891-0.25725 0.42334-0.17738 0.24488-0.25735 0.53347-0.17524 0.63238 0.11994 0.14456 0.44099 0.09641 0.74498-0.1117 0.1517-0.10385 0.36928-0.24314 0.48352-0.30956 0.11424-0.06643 0.21908-0.13613 0.23292-0.15498 0.01381-0.01881 0.09316-0.06884 0.17622-0.11111 0.08309-0.04224 0.44556-0.23528 0.80555-0.42903 0.92095-0.49568 1.4164-0.74426 1.737-0.87162 0.15228-0.0605 0.49214-0.21225 0.75519-0.3372 0.26305-0.12495 0.54627-0.25642 0.62936-0.29216 0.44225-0.19018 0.67674-0.29714 0.88109-0.40188 0.12458-0.06386 0.36879-0.17556 0.54277-0.24819 0.17398-0.07266 0.46342-0.19948 0.6432-0.28182 0.17975-0.08234 0.33636-0.14968 0.3479-0.14968 0.01135 0 0.28809-0.12606 0.6146-0.28005 0.32651-0.15398 0.74129-0.33811 0.92181-0.40925 0.18042-0.07116 0.36385-0.16044 0.40758-0.19834 0.04369-0.03794 0.11642-0.06895 0.16167-0.06895 0.0452 0 0.24931-0.07928 0.45351-0.17621 0.20417-0.09692 0.40923-0.17622 0.45569-0.17622 0.04642 0 0.12387-0.02246 0.17195-0.04985 0.11651-0.06641 0.78008-0.32245 1.3713-0.52913 0.26305-0.09196 0.90877-0.31911 1.4349-0.50474 1.2488-0.44066 1.8784-0.65553 2.9202-0.99662 0.47075-0.15412 1.1844-0.39699 1.5859-0.53976 0.4015-0.14275 0.82064-0.28227 0.93141-0.31005 0.11074-0.02777 0.26935-0.07969 0.35241-0.11535 0.0831-0.03565 0.2077-0.08007 0.27695-0.09853 0.0692-0.0185 0.20515-0.06482 0.30209-0.10285 0.0969-0.03806 0.53868-0.18622 0.98173-0.32922 0.44305-0.14303 0.83071-0.28066 0.86151-0.30592 0.0308-0.02528 0.18849-0.07038 0.35035-0.10032 0.16186-0.02992 0.33995-0.08639 0.3957-0.12547 0.0558-0.03906 0.1495-0.071 0.20826-0.071 0.0588 0 0.14795-0.0454 0.19815-0.10089 0.0506-0.05584 0.14962-0.09853 0.22185-0.09547 0.12129 5e-3 0.42601-0.07175 0.78499-0.19775 0.18606-0.0653 1.2011-0.37482 1.6111-0.49127 0.16615-0.04721 0.4637-0.13895 0.66127-0.20386 0.19757-0.06489 0.4015-0.12568 0.45314-0.135 0.1433-0.02599 0.82672-0.23153 1.0253-0.30839 0.30183-0.11681 0.71113-0.22951 0.8335-0.22951 0.0644 0 0.12927-0.01973 0.14412-0.04376 0.015-0.02406 0.12117-0.05873 0.2362-0.07719 0.97579-0.15601 2.2091-1.2581 2.9119-2.6022 0.27134-0.51878 0.30531-0.65006 0.16867-0.65006zm6.4218 0.85746c-0.34403 0.0015-0.47762 0.02645-0.73614 0.13845-0.29331 0.12709-0.86654 0.50287-0.8671 0.56848 0 0.02835-0.2072 0.40606-0.41181 0.75156-0.16323 0.27562-0.42353 0.80372-0.54596 1.1076-0.0614 0.15228-0.17842 0.40757-0.2602 0.56737-0.17726 0.34641-0.35722 1.2718-0.29174 1.5001 0.0693 0.24169 0.35189 0.76804 0.49441 0.92089 0.0737 0.07907 0.26999 0.23485 0.43614 0.34625 0.42114 0.28236 1.1832 1.0405 1.1832 1.177 0 0.09496-0.34955 0.56088-0.99456 1.3256-0.87753 1.0405-3.4769 3.6051-4.2919 4.2347-0.37383 0.28877-0.6868 0.54074-0.69542 0.56-9e-3 0.01927-0.13323 0.10946-0.2769 0.20032-0.14366 0.09089-0.2725 0.17749-0.28637 0.19254-0.0138 0.01501-0.12261 0.09042-0.2417 0.16765-0.11908 0.0772-0.2544 0.18458-0.30067 0.23864-0.0463 0.05406-0.0992 0.09834-0.11761 0.09834-0.0184 0-0.17447 0.09628-0.34682 0.21398-0.17239 0.11768-0.42777 0.27538-0.56741 0.35047-0.13961 0.07505-0.31261 0.18936-0.38447 0.25408-0.0719 0.0647-0.19865 0.14757-0.28171 0.18408-0.22522 0.09905-0.27499 0.12426-0.6042 0.3071-0.51374 0.28531-0.83362 0.43736-1.263 0.60023-0.26836 0.1018-0.47398 0.32756-0.47398 0.52048 0 0.17311 0.0802 0.24843 0.32728 0.30699 0.0554 0.0132 0.22528 0.0177 0.37759 0.0102 0.37226-0.0186 1.4464-0.41861 1.8628-0.69363 0.0692-0.0457 0.34108-0.17654 0.60417-0.29078 1.3805-0.59945 1.9563-0.96736 3.2217-2.0584 1.5185-1.3093 3.1345-2.9784 3.9779-4.1088 0.0969-0.12991 0.2456-0.31926 0.3305-0.42077 0.0849-0.10153 0.20874-0.26386 0.27527-0.3608 0.0665-0.09691 0.14934-0.20554 0.18416-0.24141 0.0348-0.03588 0.20248-0.25675 0.3726-0.49087 0.17011-0.23414 0.3343-0.42569 0.36498-0.42569 0.0307 0 0.20669 0.14967 0.39101 0.33256 0.24875 0.24688 0.35937 0.32467 0.42921 0.30198 0.29475-0.09569 1.0763-1.1656 1.2175-1.6666 0.16158-0.57339 0.15992-0.57775-0.50252-1.2652-0.21687-0.22507-0.39432-0.44705-0.39432-0.49336 0-0.11606 0.13535-0.36748 0.22483-0.4175 0.0406-0.02274 0.14403-0.24478 0.22988-0.49344 0.0858-0.24865 0.17505-0.49736 0.19825-0.55275 0.12593-0.3006 0.35556-1.1033 0.38303-1.3391 0.0363-0.31185-0.0456-0.83015-0.14977-0.94754-0.0389-0.04379-0.13332-0.19293-0.20985-0.33138-0.15219-0.27522-0.18036-0.30317-0.55047-0.54497-0.44605-0.29143-0.58542-0.33643-1.0398-0.33452zm-36.418 0.22055c-0.16947-0.0015-0.32117 0.01141-0.41543 0.04416-0.12556 0.04363-0.21399 0.05368-0.21399 0.0243 0-0.09815-0.37763 0.02142-0.6127 0.19401-0.27186 0.19956-0.59757 0.62695-0.61706 0.80978-0.0074 0.0687-0.04179 0.14252-0.07659 0.16401-0.07079 0.04376-0.21417 0.59911-0.1722 0.66701 0.02762 0.04492-0.03455 0.4705-0.17168 1.1723-0.0433 0.22155-0.07318 0.56777-0.06649 0.76946 0.0089 0.26106-0.01902 0.46709-0.09558 0.71489-0.10583 0.34199-0.10629 0.35796-0.02485 0.91166 0.06938 0.47134 0.073 0.61793 0.02209 0.8962-0.13826 0.75336-0.17088 0.81745-0.34237 0.67233-0.11393-0.09639-0.86332-1.5254-0.86332-1.6462 0-0.04133-0.05376-0.19468-0.11948-0.34082-0.06563-0.14612-0.14955-0.36766-0.1865-0.49229-0.09727-0.32804-0.24084-0.64378-0.30196-0.66413-0.02915-0.0096-0.06005-0.08275-0.06876-0.16226-0.0089-0.0795-0.05311-0.1653-0.09862-0.19076-0.04547-0.02547-0.07063-0.06586-0.05585-0.08978 0.03661-0.05927-0.07788-0.3096-0.18723-0.40936-0.0491-0.04479-0.0892-0.12526-0.0892-0.17887 0-0.23221-0.74129-1.0747-1.1725-1.3327-0.77879-0.46588-1.2226-0.61697-1.8204-0.62-0.43488-0.0021-0.45145 0.0015-0.4795 0.11877-0.02179 0.09142-0.16358 0.23139-0.23421 0.23139-0.0034 0 0.01503 0.24922 0.04099 0.5538 0.02577 0.30462 0.05134 0.98179 0.05643 1.5049l0.0095 0.95119 0.12648 0.0945c0.08432 0.06297 0.27732 0.11104 0.57898 0.14436 0.24885 0.02749 0.63378 0.11206 0.85528 0.18791 0.37677 0.129 0.43378 0.16883 0.88275 0.61625 0.61291 0.61074 0.97474 1.1402 1.2807 1.8739 0.07757 0.18602 0.18331 0.37644 0.23492 0.42312 0.05158 0.0467 0.0938 0.14459 0.0938 0.21752 0 0.07291 0.04532 0.22148 0.1007 0.3301 0.05535 0.10863 0.10067 0.22362 0.10067 0.25558 0 0.03194 0.04532 0.11574 0.1007 0.18613 0.05539 0.07041 0.1007 0.15684 0.1007 0.19217 0 0.11211 0.56465 1.0026 0.71715 1.1309h6.1e-5c0.21448 0.18047 0.34369 0.15673 0.63046-0.11594 0.22326-0.21226 0.26845-0.29291 0.40205-0.71744 0.16051-0.50994 0.24207-0.90038 0.28834-1.3792 0.01565-0.16317 0.05084-0.51428 0.07797-0.78028 0.027-0.266 0.05453-0.91045 0.06088-1.432 0.0064-0.52156 0.0267-0.95776 0.04535-0.96918 0.01841-0.01141 0.02301-0.10581 0.0098-0.20964-0.01289-0.10383 0.0098-0.34516 0.05066-0.53631 0.04093-0.19116 0.06437-0.37367 0.05213-0.40563-0.0336-0.08751 0.37689-0.35621 0.64513-0.42225 0.35946-0.08847 0.60328-0.07077 1.0069 0.07296 0.40052 0.14264 0.64786 0.3389 0.80054 0.63505 0.14087 0.27338 0.41153 0.3907 0.46845 0.20306 0.07646-0.25213 0.43461-2.8116 0.40936-2.9254-0.0436-0.19665-0.51402-0.71214-0.64989-0.71214-0.06143 0-0.13317-0.01887-0.1595-0.04188-0.12215-0.10686-0.58106-0.18486-0.95393-0.18911zm35.557 1.703c0.0346 0 0.0718 0.0039 0.1119 0.01286 0.37723 0.08283 0.56091 0.25413 0.83761 0.78077 0.12952 0.24644 0.14489 0.32427 0.14014 0.7078-3e-3 0.23702-0.0331 0.51455-0.0668 0.61676-0.0337 0.1022-0.0783 0.18584-0.099 0.18584-0.0206 0-0.0908-0.05663-0.15581-0.12586-0.065-0.06922-0.14649-0.12588-0.18088-0.12588-0.0344 0-0.0701-0.01749-0.0793-0.03875-0.01-0.02129-0.16913-0.14658-0.35529-0.27848-0.18619-0.13186-0.39705-0.31656-0.46867-0.41043-0.11914-0.15621-0.12737-0.19768-0.0972-0.4893 0.0618-0.59845 0.17174-0.83325 0.41338-0.83536zm-3.188 2.8707-0.42608 0.12479c-0.23434 0.06861-0.7659 0.23522-1.1813 0.37023-0.4154 0.13498-0.98263 0.31244-1.2606 0.39431-0.27794 0.08187-0.7424 0.22685-1.0321 0.32214-0.28972 0.09531-1.0365 0.33796-1.6595 0.53927-0.62307 0.20129-1.1781 0.38426-1.2335 0.40652-0.0554 0.02228-0.17999 0.06243-0.27689 0.08927-0.0969 0.02685-0.36879 0.12032-0.60417 0.20769-0.23538 0.08739-0.50727 0.1821-0.60417 0.21054-0.0969 0.02841-0.19889 0.06896-0.22654 0.09007-0.0276 0.02114-0.31089 0.1237-0.62936 0.22803-0.31843 0.10435-0.60165 0.20643-0.62932 0.22687-0.0276 0.02044-0.23161 0.09535-0.45314 0.16637-0.22151 0.07107-0.67462 0.23432-1.0069 0.36287-0.33228 0.12854-0.92135 0.34262-1.309 0.47572-0.86839 0.29821-1.7466 0.61563-2.0118 0.72708-0.10963 0.04608-0.4721 0.17586-0.80551 0.28843-0.33344 0.11255-0.96382 0.35175-1.4008 0.53158-0.43697 0.17985-0.82487 0.31538-0.862 0.3011-0.0372-0.0143-0.11642 0.04017-0.17622 0.12106-0.0697 0.09424-0.15379 0.147-0.23455 0.147-0.12522 0-0.4632 0.12868-1.0704 0.40759-0.17499 0.08039-0.33651 0.14623-0.35894 0.14623-0.0367 0-0.4296 0.16523-0.75774 0.3186-0.0692 0.03237-0.14403 0.0872-0.16618 0.12185-0.0221 0.03463-0.0788 0.06411-0.12587 0.06411-0.0471 0-0.2328 0.05431-0.41279 0.11947-0.49647 0.17967-2.7971 1.1276-3.197 1.3173-0.19386 0.09191-0.46572 0.21121-0.60417 0.2652-0.35385 0.13795-1.88 0.87704-2.1181 1.0258-0.17134 0.10701-0.45422 0.24074-1.1092 0.52412-0.1838 0.07949-0.41773 0.51606-0.54274 1.0128-0.04339 0.17246-0.14093 0.41036-0.21669 0.52865-0.07579 0.11827-0.22448 0.38983-0.33053 0.60347-0.10604 0.21367-0.21488 0.40206-0.24191 0.41881-0.07695 0.0476-0.19316 0.35994-0.20926 0.56266-0.01258 0.15905 0.0031 0.18909 0.11135 0.22026 0.22583 0.0648 0.27042 0.0494 0.83071-0.28496 0.30463-0.18181 0.74642-0.43425 0.98176-0.56111 0.23538-0.12686 0.55256-0.29858 0.70487-0.38152 0.30172-0.16436 1.252-0.63947 1.2789-0.63947 0.0092 0 0.36511-0.16563 0.79109-0.36806 0.42596-0.20245 0.97848-0.4546 1.2277-0.56031 0.50128-0.21264 0.62282-0.26555 1.0416-0.45351 0.1575-0.0707 0.30619-0.12852 0.3304-0.12852 0.0242 0 0.13701-0.04499 0.25066-0.09992 0.11362-0.0549 0.41644-0.19209 0.6729-0.30492 0.25642-0.11286 0.52807-0.2492 0.60355-0.30296 0.0755-0.05379 0.17447-0.09776 0.21988-0.09776 0.0454 0 0.13689-0.05427 0.20319-0.12054 0.0663-0.0663 0.12854-0.11247 0.13842-0.10256 0.0285 0.02851 0.44062-0.10627 0.74341-0.24319 0.15232-0.06888 0.49214-0.22071 0.75519-0.33738 0.26309-0.1167 0.49982-0.23288 0.52611-0.25813 0.0261-0.02525 0.10025-0.04583 0.16431-0.04583 0.0641 0 0.15588-0.02083 0.20396-0.04622 0.24704-0.13048 5.4034-2.1052 7.2618-2.7811 0.45692-0.16617 0.92138-0.33509 1.0322-0.37535 0.11074-0.04026 0.42795-0.1502 0.70484-0.24437 0.27693-0.09415 0.73004-0.25004 1.007-0.34632 0.27689-0.09628 0.70733-0.24576 0.95657-0.33218 0.24922-0.08641 0.4984-0.17762 0.55379-0.20275 0.16281-0.07394 1.603-0.52785 2.3663-0.74577 0.38769-0.11065 0.89744-0.26184 1.1328-0.336 0.23534-0.07416 0.56741-0.16166 0.73798-0.19442l0.31015-0.05957 0.44219-0.52865c0.37183-0.44449 1.3285-1.8253 1.5227-2.1979 0.0508-0.0974 0.037-0.11881-0.13335-0.20761zm-43.584 7.2795c-0.22372 0-0.50417 0.03461-1.0157 0.11085-1.6583 0.24712-4.1199 1.8176-5.6483 3.6035-0.46026 0.53778-1.3288 1.7502-1.3288 1.8549 0 0.0121-0.06303 0.1196-0.14001 0.23866-0.16738 0.25879-0.21068 0.36703-0.49883 1.2487-0.12221 0.37381-0.25888 0.79162-0.30368 0.92846-0.04483 0.13684-0.09877 0.32941-0.11988 0.42794-0.02087 0.0986-0.08662 0.38308-0.1456 0.63229-0.17444 0.73685-0.20193 1.0148-0.14339 1.4499 0.10911 0.81062 0.6057 1.5835 1.2167 1.8936l0.32393 0.16449 0.46314-0.0563c0.25471-0.0309 0.60297-0.0914 0.77388-0.13432 0.17085-0.0429 0.36198-0.0902 0.4247-0.10521 0.06269-0.015 0.12633-0.0471 0.14142-0.0715 0.01473-0.0244 0.06168-0.0443 0.10353-0.0443 0.04185 0 0.18361-0.0906 0.31497-0.20138 0.13136-0.11076 0.2629-0.2014 0.29236-0.2014 0.02946 0 0.07993-0.0319 0.11227-0.0709 0.03237-0.039 0.13145-0.10754 0.22019-0.15243 0.08871-0.0448 0.19533-0.10183 0.23685-0.12655 0.04155-0.0247 0.17751-0.094 0.30208-0.15409 0.12464-0.0601 0.28321-0.15953 0.35247-0.22107 0.06922-0.0615 0.18456-0.13673 0.25633-0.16705 0.0718-0.0303 0.31939-0.29511 0.5502-0.58844 0.2308-0.29335 0.444-0.53191 0.47367-0.53002 0.10402 6e-3 0.85952 0.63781 0.85952 0.71834 0 0.0998-0.22921 0.39923-0.98548 1.2875-0.75722 0.88933-1.93 2.0021-2.7061 2.5677-0.21108 0.15381-0.59769 0.46673-1.1229 0.9088-0.2536 0.21344-0.86541 0.65667-0.90644 0.65667-0.01841 0-0.27956 0.18322-0.57999 0.4072-0.30043 0.224-0.62552 0.45087-0.72242 0.50405-0.25253 0.13868-0.35802 0.20659-0.51963 0.33485-0.07846 0.0623-0.16459 0.11327-0.19132 0.11327-0.0267 0-0.17468 0.0931-0.32875 0.20689-0.15403 0.11381-0.36265 0.22936-0.46354 0.25676-0.2915 0.0792-0.46618 0.29052-0.29668 0.35891 0.17456 0.0704 0.64958 0.0246 0.99812-0.0964 0.403-0.13982 1.1228-0.50185 1.5614-0.78548 0.14986-0.0969 0.51034-0.31896 0.8011-0.49345 0.61644-0.36994 1.4989-0.95448 1.7873-1.1839 0.11077-0.0881 0.39944-0.29046 0.64154-0.44967 0.57744-0.37975 2.6549-2.3626 2.8361-2.7068 0.03918-0.0745 0.11206-0.16511 0.16192-0.2014 0.04989-0.0363 0.14253-0.15094 0.20583-0.25477 0.06333-0.10385 0.13302-0.18881 0.15498-0.18881 0.02209 0 0.16143-0.15984 0.30994-0.35518 0.21872-0.28769 0.28926-0.34912 0.37131-0.32344 0.05575 0.0175 0.16606 0.0473 0.24516 0.0663 0.21236 0.051 1.2393 0.96213 1.2401 1.1003 0.0031 0.16908 0.0942 0.18925 0.2077 0.0449 0.05627-0.0716 0.12906-0.12998 0.16167-0.12989 0.11556 0 1.0769-1.1033 1.1142-1.2792 0.0064-0.0303 0.03007-0.12076 0.05213-0.20088 0.03569-0.12898 0.0178-0.16555-0.15578-0.3189-0.10785-0.0953-0.27539-0.22503-0.37229-0.28832-0.0969-0.0633-0.21942-0.16337-0.27217-0.22233-0.05278-0.059-0.12396-0.10719-0.15821-0.10719-0.03433 0-0.07545-0.0342-0.09147-0.076-0.01596-0.0418-0.09211-0.1032-0.16904-0.13657-0.16112-0.0699-0.71764-0.48104-0.72138-0.53297-0.0031-0.0191-0.01166-0.13677-0.02301-0.26138-0.03007-0.33466 0.05271-0.58151 0.24357-0.72708 0.11721-0.0894 0.18236-0.1951 0.2259-0.36639 0.11961-0.47079 0.20859-1.1537 0.20954-1.6069 0-0.40867 0.01166-0.46261 0.09629-0.48479 0.05244-0.0136 0.13013-0.10128 0.17254-0.19461 0.22-0.48407 0.28588-0.64935 0.28588-0.71783 0-0.0414 0.02424-0.0903 0.05379-0.10857 0.02946-0.0183 0.04078-0.067 0.02485-0.10827-0.01596-0.0413 0.0037-0.14655 0.04376-0.23403 0.14744-0.32308 0.37566-1.2876 0.45449-1.9212 0.06134-0.4928-0.29184-1.4511-0.66109-1.7938-0.20319-0.18858-0.31875-0.23862-0.78646-0.34082-0.18754-0.04099-0.32721-0.06302-0.50122-0.06345zm49.008 1.4464c-0.65992 0.0077-1.145 0.13764-1.5611 0.4133-0.37993 0.25167-1.1326 0.9823-1.3695 1.3294-0.29745 0.4358-0.34286 0.59742-0.39411 1.4005-0.0298 0.4684-0.0966 0.94657-0.18612 1.3342-0.1128 0.48807-0.14026 0.72996-0.14272 1.2587-3e-3 0.58838 0.0107 0.69398 0.13434 1.0452 0.0756 0.21484 0.22052 0.51585 0.32215 0.66884 0.10485 0.15795 0.1648 0.29493 0.13863 0.31694-0.18499 0.15571-0.42896 0.31015-0.49002 0.31015-0.0953 0-2.9945 1.4644-3.2708 1.6522-0.11673 0.0793-0.44047 0.25938-0.71939 0.40024-0.27895 0.14087-0.70941 0.38251-0.95663 0.53699-0.24716 0.15449-0.50132 0.30331-0.5648 0.33059-0.0635 0.0273-0.24916 0.14043-0.41261 0.25145-0.16346 0.11099-0.30816 0.20178-0.32157 0.20178-0.0252 0-0.6211 0.34662-0.71122 0.41361-0.0276 0.0206-0.19761 0.14922-0.3776 0.28594-0.17999 0.13671-0.96243 0.63573-1.7387 1.109l-1.4115 0.8605-0.44296 1.4472c-0.62485 2.041-0.66053 2.1726-0.60416 2.2289 0.12371 0.12376 1.4768 0.24339 3.2156 0.28429 2.0019 0.0471 2.2903 0.0439 2.4962-0.0278 0.0895-0.0313 0.14709-0.0328 0.14709-4e-3s0.54179 0.0454 1.372 0.0424c0.75458-3e-3 1.895 0.012 2.5342 0.033 1.0725 0.0353 1.1648 0.0315 1.1953-0.0482 0.0181-0.0475 0.0564-0.072 0.0847-0.0545 0.0282 0.0175 0.0385 0.0529 0.0227 0.0787-0.016 0.0258 0.012 0.0496 0.0621 0.0528 0.05 3e-3 0.159 0.0125 0.2421 0.0207 0.0831 8e-3 0.57017 0.0286 1.0825 0.0457 0.51223 0.0171 1.1126 0.0413 1.3341 0.0539 0.22153 0.0125 1.1934 0.0447 2.1597 0.0714 0.96624 0.0267 1.7779 0.0695 1.8035 0.0951 0.0432 0.0431-0.4038 0.36177-0.50751 0.36177-0.0233 0-0.13044 0.0635-0.23842 0.14119-0.10801 0.0777-0.30966 0.19524-0.44814 0.26119-0.13844 0.066-0.41435 0.22332-0.61322 0.34968-0.86535 0.5498-1.2444 0.78483-1.2955 0.80329-0.0301 0.0109-0.25869 0.13838-0.50788 0.28329-1.1638 0.67661-3.2258 1.7151-3.8515 1.9398-0.12461 0.0448-0.61086 0.22363-1.0806 0.39749-2.4445 0.90475-4.1133 1.2349-6.2197 1.2304-1.4768-3e-3 -1.7989-0.0628-3.2157-0.59483-0.19674-0.0739-0.94497-0.43512-1.2586-0.6076-0.0657-0.0361-0.36017-0.30158-0.65452-0.59001-0.69794-0.68391-1.4994-1.3986-1.5685-1.3986-0.0993 0-0.5023-0.20297-0.5023-0.25301 0-0.0795-0.11642-0.0553-0.25173 0.0523-0.0692 0.055-0.31859 0.23525-0.55422 0.4004-0.52739 0.36973-1.1851 0.90489-2.3233 1.8907-1.8947 1.6409-2.9077 2.3515-4.0788 2.8611-1.1619 0.5057-1.3602 0.55432-2.2571 0.55242-0.82156-3e-3 -1.064-0.0424-1.9887-0.33452-1.1274-0.35614-1.5141-0.57142-2.1785-1.2127-0.27834-0.26865-0.49487-0.53637-0.65302-0.80733-0.13016-0.22296-0.28284-0.45603-0.33936-0.51782-0.17883-0.19565-0.78134-1.5111-0.78134-1.706 0-0.0549-0.0224-0.12213-0.04949-0.14936-0.07168-0.0717-0.29898-1.0234-0.35833-1.5006-0.02792-0.22458-0.0834-0.50532-0.12341-0.62382-0.10834-0.32113-0.26557-1.3966-0.32912-2.2516-0.03087-0.41536-0.11184-1.0724-0.17996-1.46-0.06812-0.38769-0.14326-0.81815-0.16686-0.9566-0.09466-0.555-0.34188-1.5132-0.70803-2.7439-0.07824-0.26307-0.19113-0.6482-0.25081-0.8559-0.15627-0.54354-0.59177-1.7923-0.73359-2.1035-0.06668-0.14616-0.12126-0.27788-0.12126-0.29272 0-0.0148-0.05661-0.15074-0.12584-0.30208-0.06922-0.15136-0.1259-0.28623-0.1259-0.29994 0-0.0427-0.36029-0.95145-0.39825-1.0044-0.01995-0.0277-0.0996-0.20893-0.17717-0.40277-0.26443-0.66057-1.6355-3.364-1.7788-3.5072-0.0343-0.0344-0.06244-0.0815-0.06244-0.10483 0-0.0233-0.09064-0.16514-0.20138-0.31506-0.1108-0.14993-0.20141-0.28654-0.20141-0.30346 0-0.066-0.3355-0.51975-0.65084-0.88028-0.18196-0.208-0.38088-0.44223-0.44212-0.52038-0.09128-0.11658-0.1536-0.1435-0.34664-0.15036-0.20006-0.0071-0.23752 0.0068-0.25044 0.09233-0.0083 0.05538-0.03722 0.17999-0.0641 0.27691-0.027 0.0969-0.07579 0.32349-0.10847 0.50348-0.03271 0.17998-0.1254 0.51777-0.20601 0.75067-0.08064 0.23287-0.14661 0.47168-0.14661 0.53062 0 0.0589-0.04692 0.19689-0.10426 0.3066-0.15597 0.29849-0.14572 1.2028 0.01626 1.4315 0.04848 0.0685 0.08809 0.16898 0.08809 0.22332 0 0.0544 0.04118 0.14559 0.09141 0.20277 0.0502 0.0572 0.19006 0.26254 0.3108 0.45635 0.12077 0.19386 0.2949 0.46957 0.38696 0.61274 0.09208 0.14312 0.16747 0.27176 0.16747 0.28585 0 0.0141 0.07867 0.15773 0.17493 0.31928 0.09626 0.16156 0.28984 0.55402 0.43022 0.87213 0.32728 0.74181 0.30248 0.68245 0.56658 1.3588 0.50942 1.3045 0.6644 1.7114 0.8435 2.2153 0.10337 0.29075 0.22461 0.61281 0.26947 0.71577 0.0448 0.10295 0.08162 0.21089 0.08162 0.23984 0 0.029 0.02271 0.0921 0.05002 0.14013 0.02762 0.0481 0.11933 0.30265 0.20405 0.56571 0.08475 0.26308 0.23004 0.69352 0.32283 0.9566 0.34605 0.98087 0.75212 2.4258 0.98345 3.4991 0.04774 0.22153 0.13682 0.5387 0.19785 0.70485 0.14919 0.40606 0.26536 1.0146 0.23768 1.2452-0.03556 0.29657-0.1988 0.57766-0.66554 1.1463-0.84013 1.0236-2.6876 3.0112-3.3037 3.5545-0.34078 0.30046-0.6648 0.58943-0.72018 0.64214-0.05541 0.0527-0.3726 0.31129-0.70487 0.57465-0.33228 0.26336-0.68346 0.54348-0.78039 0.62256-0.09693 0.0791-0.44808 0.36558-0.78036 0.63671-1.5181 1.2386-3.2695 2.4127-4.1033 2.7507-0.12464 0.0505-0.27189 0.11124-0.32728 0.13493-1.0601 0.45299-2.6255 0.66303-3.5237 0.47279-0.5362-0.11358-1.1899-0.46534-1.6555-0.89074-0.34283-0.31328-0.42571-0.42403-0.61672-0.82461-0.12136-0.2545-0.22056-0.48542-0.22056-0.513 0-0.0276-0.03387-0.1151-0.07524-0.1944-0.04136-0.0793-0.07573-0.2008-0.07628-0.27003 0-0.0692-0.03424-0.2668-0.07487-0.43895-0.07146-0.30324-0.09623-0.983-0.05456-1.4994 0.01135-0.13843 0.02516-0.46848 0.03081-0.73333 0.0058-0.26493 0.02884-0.60476 0.05109-0.75524 0.0224-0.15046 0.06735-0.47746 0.09991-0.72669 0.03262-0.2492 0.08819-0.57772 0.12344-0.73003 0.03522-0.15229 0.09181-0.43549 0.12577-0.62933 0.03394-0.19383 0.08205-0.40447 0.10687-0.46808 0.02485-0.0636 0.04514-0.1895 0.04514-0.27984 0-0.0903 0.03317-0.20822 0.07386-0.26197 0.04063-0.0537 0.07456-0.14842 0.07551-0.21034 0.0031-0.14507 0.16413-0.86033 0.25971-1.1461 0.02792-0.0831 0.05686-0.19636 0.06459-0.25174 0.0077-0.0554 0.02823-0.14602 0.04526-0.2014 0.01718-0.0554 0.01473-0.25929-0.0046-0.45311-0.03394-0.33278-0.04293-0.35243-0.16177-0.35243-0.10279 0-0.15047 0.0508-0.25968 0.27691-0.12682 0.26243-0.215 0.52138-0.45434 1.3342-0.05707 0.19381-0.15747 0.52235-0.2231 0.73003-0.1178 0.37262-0.28868 0.95799-0.29401 1.0069-0.0031 0.0138-0.02946 0.11579-0.06238 0.22655-0.09141 0.30885-0.20307 0.8631-0.2637 1.309-0.2725 2.0043-0.33719 2.5835-0.38232 3.4236-0.01933 0.35995-0.04152 0.66579-0.04928 0.67966-0.0077 0.0138 0.0043 0.52363 0.0267 1.1328 0.04311 1.1707 0.10147 1.5409 0.33114 2.1003 0.07146 0.17399 0.17606 0.42962 0.23237 0.56806 0.19463 0.47858 0.3644 0.80645 0.53464 1.0321 0.6516 0.86379 1.4173 1.3949 2.4003 1.6651 0.36394 0.10004 0.47315 0.10727 1.1571 0.077 1.6321-0.0723 2.5827-0.3421 3.8767-1.1006 0.24998-0.14657 1.9776-1.3054 2.099-1.4079 0.07456-0.063 0.276-0.22785 0.44759-0.36629 0.17162-0.13846 0.48438-0.39721 0.69511-0.57495 0.21074-0.17777 0.50782-0.40204 0.66014-0.49847 0.15228-0.0964 0.42418-0.28978 0.60417-0.42971 0.51635-0.40148 2.526-2.2592 2.9044-2.6848 0.18861-0.2121 0.50938-0.56866 0.71282-0.79238 0.2034-0.22375 0.42939-0.49742 0.50217-0.60819 0.12151-0.18483 0.3255-0.44002 0.97824-1.2234 0.33025-0.39635 0.46471-0.60551 0.54062-0.84084 0.03575-0.11078 0.13366-0.35998 0.21773-0.55383 0.08404-0.19382 0.18901-0.49534 0.23323-0.66995 0.04421-0.17462 0.10261-0.31633 0.1297-0.31633 0.027 0 0.06487 0.13207 0.08398 0.29224 0.01902 0.16016 0.08272 0.69906 0.14142 1.1975 0.13139 1.1158 0.2378 1.6996 0.3945 2.1649 0.02792 0.0831 0.10077 0.30963 0.16174 0.50348 0.25265 0.80265 0.97489 1.7832 1.8857 2.5602 0.24922 0.21261 0.52108 0.44764 0.60417 0.52225 0.08306 0.0746 0.23031 0.17617 0.32721 0.22576 0.09693 0.0496 0.27821 0.15363 0.40282 0.23128 0.12461 0.0776 0.5324 0.23861 0.90622 0.35766 0.37382 0.11904 0.78164 0.25017 0.90625 0.29135 0.12458 0.0412 0.59487 0.0999 1.045 0.13038 0.73049 0.0495 0.86845 0.0457 1.2838-0.0357 0.256-0.0501 0.62853-0.12045 0.82788-0.15614 0.72347-0.12956 2.3159-0.83343 3.0419-1.3445 0.16787-0.11819 0.40512-0.27152 0.52715-0.34073 0.42141-0.23905 1.1378-0.76678 1.5326-1.129 0.15314-0.14051 0.37968-0.34379 0.50346-0.45166 0.56606-0.49337 1.3076-1.2076 1.3076-1.2594 0-0.0734 0.47189-0.53308 0.54722-0.53308 0.0759 0 0.0754 5e-3 -0.0668 0.63513-0.28772 1.2749-0.35989 2.7615-0.18309 3.774 0.0528 0.30252 0.11163 0.66233 0.13059 0.79956 0.0463 0.33518 0.39712 1.1846 0.65597 1.5882 0.24817 0.38689 1.0303 1.2254 1.4287 1.5317 0.36045 0.27709 0.83593 0.51659 1.202 0.60535 0.43454 0.10533 0.6405 0.0935 0.94187-0.0541 0.4236-0.20742 0.54728-0.36977 1.0112-1.3278 0.0737-0.15231 0.1329-0.33838 0.13158-0.41348-3e-3 -0.0752 0.0617-0.26926 0.14022-0.43142 0.0836-0.17253 0.16655-0.46043 0.20009-0.69414 0.0315-0.21961 0.0814-0.52395 0.11074-0.67624 0.0295-0.1523 0.0626-0.36753 0.0739-0.4783 0.0114-0.11074 0.056-0.27632 0.0992-0.36784 0.0433-0.0915 0.0965-0.34351 0.11832-0.55992 0.0218-0.21644 0.0549-0.4182 0.0736-0.44852 0.0187-0.0302 0.0464-0.23139 0.0615-0.44691 0.0147-0.2155 0.0314-0.39586 0.0365-0.40099 0.0298-0.0298 0.66704-0.0138 1.3421 0.0338 0.90763 0.0639 2.5488-0.0322 3.3732-0.19735 0.26309-0.0527 0.56894-0.1092 0.67971-0.12558 0.50089-0.074 0.88063-0.18368 1.7621-0.50909 0.19383-0.0716 0.44305-0.16009 0.55382-0.19666 0.40524-0.13383 1.0606-0.38312 1.1831-0.45009 0.0692-0.0378 0.21651-0.097 0.32731-0.13154 0.21451-0.0669 0.62356-0.2603 1.3627-0.64438 0.251-0.13044 0.5455-0.27701 0.65449-0.32558 0.10896-0.0486 0.25471-0.12208 0.3239-0.16323 0.0692-0.0412 0.20515-0.11053 0.30209-0.15411 0.25117-0.11296 0.60815-0.30982 0.75519-0.41644 0.0692-0.0502 0.30147-0.17428 0.51607-0.27563 0.21461-0.10135 0.39018-0.20211 0.39018-0.22401s0.085-0.0834 0.1888-0.13659c0.10386-0.0532 0.25676-0.15766 0.33986-0.23207 0.0831-0.0744 0.23338-0.16149 0.33384-0.19352 0.10049-0.032 0.22503-0.10495 0.2768-0.16215 0.0518-0.0572 0.19613-0.1625 0.32077-0.23394 0.12467-0.0714 0.30586-0.18996 0.40276-0.26322 0.0969-0.0733 0.27692-0.17266 0.39996-0.22077 0.12298-0.0481 0.28509-0.13129 0.3602-0.18477 0.0751-0.0535 0.15664-0.0971 0.18119-0.0971 0.0246-2e-5 0.2363-0.10081 0.47054-0.22392 0.23421-0.12311 0.53905-0.28195 0.6775-0.35302 0.13848-0.0711 0.3084-0.1628 0.3776-0.20375 0.0693-0.041 0.20518-0.10897 0.30208-0.15123 0.0969-0.0422 0.23289-0.1094 0.30208-0.14927 0.0692-0.0399 0.29583-0.15244 0.50347-0.25016 0.2077-0.0977 0.4343-0.20786 0.50352-0.24476 0.39717-0.21172 0.66121-0.33708 0.70984-0.33708 0.0304 0 0.12673-0.0335 0.21399-0.0743 0.43243-0.20255 2.1332-0.81001 2.4686-0.88177 0.11402-0.0244 0.38855-0.0898 0.61006-0.14532 0.22154-0.0555 0.84292-0.2034 1.3808-0.32864 0.53792-0.12525 1.0455-0.25116 1.1278-0.27987 0.0824-0.0287 0.22301-0.0522 0.31261-0.0522 0.0897 0 0.22786-0.0339 0.30721-0.0752 0.0793-0.0414 0.17987-0.0755 0.2235-0.0755 0.23053-2e-3 0.46492-0.49826 0.9567-2.0303 0.30236-0.94201 0.35783-1.1642 0.30819-1.2335-0.0334-0.0465-0.0836-0.13811-0.11172-0.20355-0.0428-0.0996-0.0736-0.11294-0.18871-0.0816-0.16708 0.0454-1.6066 0.064-6.2295 0.0799-3.4348 0.0118-5.9346-0.0501-8.3324-0.2064-1.498-0.0977-6.2568-0.24879-7.9209-0.25165h-0.19263l0.21779-0.16569c0.27782-0.21139 0.70782-0.45599 0.99821-0.56778 0.12458-0.048 0.29475-0.13747 0.37809-0.19883 0.0833-0.0614 0.35391-0.21833 0.60132-0.3488 0.24734-0.13047 0.50509-0.28073 0.57268-0.33393 0.0676-0.0532 0.15051-0.0968 0.18417-0.0968 0.0337 0 0.15458-0.0676 0.26876-0.15036 0.1142-0.0827 0.36118-0.23183 0.54878-0.3314 0.18766-0.0995 0.45443-0.24581 0.59288-0.32499 0.13847-0.0791 0.36719-0.17877 0.50818-0.22144 0.141-0.0427 0.31452-0.12336 0.38558-0.17926 0.071-0.0559 0.17542-0.10156 0.23206-0.10156 0.12421 0 0.32703-0.0865 0.54848-0.23405 0.0901-0.06 0.29407-0.14917 0.45317-0.19804 0.1591-0.0489 0.40248-0.13873 0.54093-0.19962 0.61435-0.2702 1.3757-0.56731 1.5669-0.61155 0.14676-0.0339 0.3478 0.0817 0.66667 0.38351 0.14857 0.14058 0.29018 0.25558 0.31469 0.25558 0.0245 0 0.0446-0.23512 0.0446-0.52244v-0.52247l0.24847-0.10688c0.13664-0.0588 0.2687-0.10689 0.29334-0.10689 0.0621 0 2.2161-0.66778 2.735-0.84794 0.71687-0.24883 0.86863-0.29807 1.111-0.36059 0.22645-0.0584 0.24225-0.0754 0.48742-0.52098 0.33817-0.61464 0.55808-1.1552 0.99631-2.4493 0.33427-0.98709 0.36004-1.0914 0.29214-1.1832-0.0409-0.0554-0.13611-0.19861-0.21147-0.31831-0.49125-0.77995-1.2161-1.5436-2.2517-2.3724-1.5254-1.2208-2.2278-1.5293-3.5998-1.581-0.10172-0.0039-0.19957-0.0053-0.29383-0.0041zm-18.36 0.11329c-0.0644-0.0015-0.19067 0.01887-0.32458 0.05349l-0.32463 0.08387-0.0917 0.30082c-0.0504 0.16548-0.14741 0.49348-0.21565 0.72885-0.0682 0.23537-0.21706 0.6998-0.33068 1.0321-0.21277 0.62232-0.39227 1.4646-0.43464 2.039-0.0199 0.2697 3e-3 0.40991 0.12743 0.79708 0.16916 0.52439 0.35747 0.8339 0.57594 0.94687 0.0804 0.0416 0.28579 0.0937 0.45651 0.11583 0.17067 0.0217 0.3405 0.032 0.37739 0.0217 0.0369-0.0103 0.16099-0.0187 0.27591-0.0187 0.19205 0 0.23491-0.0272 0.53111-0.33679 0.45562-0.47625 0.56394-0.64094 0.83751-1.2738l0.24189-0.55972-0.19635-0.2019c-0.27889-0.28664-0.48956-0.40737-0.64351-0.36872-0.10659 0.0267-0.13218 0.0697-0.15832 0.26616-0.0172 0.12888-0.0503 0.29098-0.0737 0.36021-0.0233 0.0692-0.0558 0.20299-0.0722 0.29727-0.044 0.25367-0.11148 0.3069-0.38935 0.3069-0.38877 0-0.5822-0.10631-0.70721-0.38853-0.21058-0.47559-0.2127-0.75014-0.0104-1.3762 0.0407-0.12603 0.0937-0.34126 0.11789-0.47831 0.0662-0.37535 0.39475-1.8833 0.45878-2.1055 0.0309-0.10715 0.0375-0.21223 0.0144-0.23364-6e-3 -0.0053-0.0206-8e-3 -0.0419-0.0084zm-30.934 0.50012 0.18889 0.19865c0.26069 0.274 0.36812 0.62516 0.39846 1.3025 0.02025 0.4549 0.0095 0.58683-0.05833 0.71822-0.07505 0.14516-0.09417 0.15502-0.19481 0.1006-0.14415-0.078-0.72359-0.0592-1.1403 0.0371-0.31832 0.0735-1.1109 0.45503-1.1109 0.53474 0 0.0224-0.02577 0.0407-0.05753 0.0407-0.07097 0-0.59699 0.4444-0.59699 0.50437 0 0.0239-0.10509 0.26564-0.23341 0.53729-0.12838 0.27166-0.28297 0.6865-0.34372 0.92187-0.06069 0.23537-0.11887 0.45062-0.12918 0.47829-0.01043 0.0277-0.0031 0.38485 0.01964 0.79367l0.03836 0.74331-0.16244 0.13776c-0.39119 0.33173-1.7146 0.9941-2.1848 1.0936-0.376 0.0795-0.54958 0.0857-0.83071 0.0295-0.36192-0.0724-0.51534-0.22002-0.78115-0.75186-0.30874-0.61763-0.34986-1.2992-0.12344-2.046 0.05879-0.1938 0.14072-0.4657 0.18214-0.60414 0.20911-0.6997 1.1715-1.9473 2.1909-2.8401 1.0618-0.93003 1.5388-1.2156 2.7607-1.653 0.61724-0.22098 0.64412-0.22575 1.399-0.25115zm48.757 3.1087c0.75351 0 0.75608 0 1.1328 0.17287 0.2077 0.0951 0.48524 0.24804 0.61684 0.33984 0.13161 0.0918 0.25993 0.16697 0.28527 0.16697 0.0255 0 0.0536 0.017 0.0628 0.0378 9e-3 0.0208 0.18671 0.16794 0.39441 0.32717 0.61034 0.46786 0.88711 0.72885 0.83074 0.78332-0.0276 0.0268-0.26557 0.11113-0.52865 0.18743-0.26306 0.0763-0.54627 0.16832-0.62936 0.20452-0.083 0.0362-0.35492 0.13627-0.60417 0.22234-0.24915 0.0861-0.50972 0.1815-0.57897 0.21202-0.0692 0.0305-0.27312 0.10963-0.45312 0.17591-0.54583 0.20093-0.50346 0.20886-0.8211-0.15292-0.15759-0.17953-0.28653-0.3489-0.28653-0.37641 0-0.0464-0.46154-0.6619-0.66826-0.89111-0.23277-0.25809-0.43924-0.58371-0.437-0.68922 3e-3 -0.13398 0.34709-0.43204 0.70248-0.6082 0.20398-0.10104 0.30186-0.11229 0.98176-0.11229zm-49.764 0.78235c0.14501 2e-3 0.20402 0.0293 0.31712 0.11553 0.12209 0.0931 0.18638 0.1962 0.22973 0.36837 0.13857 0.5504 0.16054 1.2274 0.05406 1.6665-0.04796 0.19779-0.08702 0.26431-0.15514 0.26431-0.05011 0-0.10396-0.0209-0.1197-0.0463-0.01565-0.0254-0.17582-0.12864-0.35587-0.22931-0.51212-0.28638-0.65228-0.47542-0.81429-1.0982-0.06447-0.24785-0.06588-0.32525-0.0092-0.51764 0.10488-0.35516 0.28263-0.49123 0.67428-0.51616 0.07263-5e-3 0.13053-7e-3 0.17886-7e-3zm29.163 5.1195c-0.087 0-0.15327 0.013-0.16146 0.0333-0.0107 0.0271-0.076 0.10126-0.14452 0.16481-0.12136 0.11248-0.12578 0.14236-0.16769 1.1112l-0.0431 0.99553 0.15477 0.47818c0.0852 0.26304 0.1718 0.58523 0.19248 0.71596 0.0336 0.21241 0.0245 0.24999-0.0846 0.35254-0.0912 0.0856-0.18195 0.11475-0.35737 0.11475-0.20135 0-0.27475-0.0315-0.51194-0.21889-0.4138-0.32706-0.45602-0.45567-0.53021-1.6188-0.0512-0.80359-0.085-1.0457-0.18604-1.3342l-0.12341-0.35243-0.19696-6e-3c-0.10832-4e-3 -0.22952-0.0148-0.26944-0.0252-0.0414-0.0107-0.0812 0.0244-0.0926 0.0819-0.011 0.0554-0.0659 0.13664-0.12194 0.18064-0.091 0.0715-0.10108 0.13313-0.0945 0.57898 0.01 0.66159 0.0101 0.63266-0.0264 1.1652-0.0248 0.36045-0.0138 0.52071 0.0495 0.71428 0.10576 0.32341 0.10285 0.49763-0.0114 0.68383-0.12058 0.19622-0.4022 0.46892-0.52445 0.50769-0.15759 0.05-0.41586-0.0227-0.53651-0.15114-0.17707-0.1885-0.21506-0.43657-0.22795-1.4894-0.012-0.98909-0.0386-1.1532-0.22197-1.3726-0.0627-0.0751-0.12503-0.0837-0.40558-0.056-0.4126 0.0406-0.54464 0.10617-0.76691 0.38063l-0.17582 0.21723 0.0461 0.55381c0.0489 0.58723 0.087 0.6755 0.34918 0.81108 0.21503 0.11118 0.29819 0.46386 0.3193 1.3538 0.01 0.41536 0.0323 0.85628 0.05 0.97981 0.0731 0.51065 0.33949 0.97644 0.5907 1.0328 0.0615 0.0138 0.21375 0.0311 0.33835 0.0384 0.42534 0.025 0.65814-0.0751 0.98876-0.42512 0.25787-0.27294 0.47134-0.62072 0.47134-0.76797 0-0.16626 0.13167-0.0654 0.21279 0.16294 0.10442 0.29412 0.27192 0.45826 0.67447 0.66128 0.37063 0.18693 0.77738 0.20902 1.1056 0.06 0.33038-0.15006 0.97762-0.98247 0.97762-1.2573 0-0.0756 0.0282-0.16582 0.0629-0.2005 0.0346-0.0347 0.0661-0.13545 0.07-0.22402 4e-3 -0.0885 0.033-0.25158 0.0648-0.36235 0.0317-0.11078 0.0709-0.57521 0.087-1.0321 0.0326-0.92302-0.0523-1.5993-0.3131-2.4922-0.0728-0.24923-0.14375-0.51339-0.15771-0.58696-0.0224-0.11822-0.0526-0.13609-0.25953-0.15341-0.0322-3e-3 -0.0635-4e-3 -0.0925-4e-3zm-8.57 3.9675c-0.01442 3e-3 -0.03007 0.0189-0.05204 0.0453-0.03615 0.0436-0.10264 0.0793-0.14771 0.0795-0.0904 0-0.25811 0.35466-0.25811 0.54556 0 0.0642-0.05839 0.26257-0.1297 0.44083-0.07131 0.17826-0.17014 0.46553-0.21957 0.63838-0.0494 0.17285-0.15228 0.45008-0.22866 0.61597-0.15747 0.34225-0.51055 1.3958-0.58201 1.7365-0.09696 0.46251-0.29309 2.2047-0.29579 2.6277-0.0037 0.58333 0.12013 1.4354 0.24823 1.7083 0.13062 0.27832 0.42552 0.74474 0.54897 0.86818 0.05186 0.0518 0.21559 0.13616 0.36382 0.18734 0.31841 0.10994 0.31908 0.10999 0.54973 0.0459 0.27097-0.0753 0.56833-0.3613 0.79824-0.76778 0.11353-0.20074 0.22875-0.39892 0.25609-0.44044 0.23823-0.3623 0.70285-1.6936 0.74268-2.128 0.02117-0.23075 0.01596-0.24213-0.1339-0.29443-0.08579-0.0299-0.15637-0.0691-0.15676-0.0872 0-0.0181-0.02087-0.0647-0.0456-0.10373-0.03636-0.0574-0.08242-0.0412-0.242 0.0851-0.2131 0.16874-0.29352 0.3607-0.33565 0.80044-0.02946 0.30801-0.1768 0.6199-0.36146 0.76515-0.16689 0.13126-0.43261 0.18314-0.56778 0.1108-0.18957-0.10145-0.55952-0.53009-0.61184-0.70889-0.08582-0.29331-0.12231-1.2265-0.05741-1.4693 0.03197-0.11956 0.09104-0.47786 0.13133-0.7963 0.06729-0.53106 0.21169-1.0468 0.50751-1.8125 0.08972-0.2321 0.251-0.79026 0.422-1.4601 0.13114-0.51387 0.16839-1.0069 0.07597-1.0069-0.03802 0-0.0996-0.0584-0.13697-0.12963-0.03771-0.072-0.05769-0.1011-0.08159-0.0957zm-14.08 3.0669c-0.27057 2e-3 -0.44249 0.10329-0.71175 0.36935-0.96378 0.95224-1.4742 2.2643-1.8795 4.8319-0.0317 0.20077-0.07659 0.36501-0.09982 0.36501-0.02301 0-0.07999-0.13027-0.12617-0.2895-0.07462-0.25729-0.24563-0.70878-0.37662-0.99435-0.02547-0.0554-0.12571-0.33652-0.22292-0.62472-0.09721-0.28817-0.2196-0.57137-0.27189-0.62933-0.09874-0.10942-0.50006-0.72109-0.60984-0.92945-0.09589-0.18188-0.47876-0.67027-0.63967-0.81597-0.54351-0.49214-1.1066-0.70103-1.8896-0.70103-0.42295 0-0.53516 0.017-0.67367 0.10267-0.14612 0.0903-0.17042 0.13691-0.2015 0.38565-0.01933 0.15564-0.0181 0.47763 0.0031 0.71548 0.02117 0.23786 0.03608 0.71332 0.03314 1.0566l-0.0052 0.62413 0.17554 0.23914c0.25704 0.35019 0.43464 0.38517 0.88707 0.17454 0.31307-0.14575 0.4887-0.15369 0.78637-0.0355 0.23525 0.0934 0.78146 0.60051 0.90536 0.84055 0.07772 0.15064 0.2946 0.45551 0.5478 0.77015 0.17493 0.21739 0.42212 0.63282 0.54525 0.91648 0.0541 0.12461 0.16508 0.35119 0.24673 0.50346 0.08165 0.15232 0.1788 0.33356 0.21583 0.40277 0.03707 0.0692 0.06741 0.15139 0.06757 0.18261 0 0.0312 0.0321 0.0831 0.07088 0.11535 0.03885 0.0322 0.08607 0.11986 0.10485 0.1947 0.01872 0.0749 0.05769 0.16455 0.08653 0.19933 0.07643 0.0921 0.31463 0.0773 0.4015-0.0249 0.04121-0.0485 0.11491-0.17874 0.16382-0.2895 0.04894-0.11077 0.13139-0.2921 0.18321-0.40296 0.10107-0.21636 0.31804-1.0019 0.42411-1.5354 0.256-1.2881 0.41028-1.8312 0.6544-2.3035 0.29245-0.56576 0.51021-0.76769 0.82767-0.76769 0.18064 0 0.28824 0.0383 0.4903 0.17434 0.34179 0.23016 0.45434 0.3993 0.55127 0.82837 0.08561 0.37911 0.17484 0.45184 0.32979 0.26855 0.06953-0.0822 0.39426-0.74024 0.39426-0.79887 0-0.0146 0.0614-0.13132 0.13645-0.2594 0.1529-0.26091 0.4138-0.98473 0.41595-1.1541 0-0.0606-0.02271-0.12527-0.05232-0.14355-0.02946-0.0183-0.04142-0.0654-0.02639-0.10472 0.0463-0.12076-0.22175-0.61201-0.42887-0.78589-0.69094-0.58021-0.67373-0.57038-1.1223-0.64202-0.1193-0.0191-0.22053-0.0296-0.31074-0.0289zm45.756 8.4213-0.0762 0.12065c-0.11654 0.18441-0.42893 0.9995-0.49837 1.3004-0.0887 0.38417-0.015 0.43354 0.69769 0.46876 0.4958 0.0246 1.1739 0.16649 1.1739 0.24584 9e-5 0.0367-0.54734 0.51497-0.80545 0.70369-0.0969 0.0708-0.42541 0.28716-0.73004 0.48065-0.3046 0.19349-0.78035 0.51327-1.0573 0.71065-0.2769 0.19741-0.62774 0.4451-0.77947 0.55036-0.37391 0.25938-0.75611 0.61687-0.75611 0.70712 0 0.0407-0.0538 0.13792-0.11955 0.21606-0.22056 0.26208-0.37115 1.1496-0.23752 1.3994 0.0304 0.0565 0.055 0.14596 0.055 0.19884 0 0.13474 0.45594 0.50459 0.74231 0.6022 0.13123 0.0447 0.31402 0.1257 0.40616 0.18003 0.0921 0.0544 0.29616 0.11712 0.45351 0.13932 0.69993 0.0989 2.4144-0.036 3.332-0.26222 0.90744-0.22378 2.6623-0.90633 3.3984-1.3218 0.19386-0.10942 0.51101-0.27682 0.70487-0.37204 0.19383-0.0952 0.4498-0.23866 0.56885-0.31888 0.11909-0.0802 0.22602-0.1458 0.23765-0.1458 0.0117 0 0.19641-0.10359 0.41058-0.23022 0.21412-0.12658 0.45836-0.26309 0.54271-0.30336 0.24722-0.11808 0.3463-0.18405 0.61635-0.41015 0.24731-0.20711 0.25636-0.22399 0.29073-0.54516 0.0196-0.18235 0.0258-0.34144 0.0135-0.35341-0.012-0.0121-0.08 0.0237-0.15087 0.0794-0.0709 0.0558-0.15321 0.10139-0.18288 0.10139-0.0298 0-0.17339 0.0907-0.3193 0.2016-0.14593 0.11082-0.36725 0.23966-0.49186 0.28633-0.12464 0.0467-0.30549 0.13727-0.4019 0.20129-0.0964 0.064-0.1949 0.11635-0.21878 0.11635-0.0239 0-0.30751 0.11192-0.63024 0.24879-1.7104 0.72517-3.156 1.1531-4.6145 1.3661-0.58713 0.0858-2.0886 0.0869-2.5173 3e-3 -0.43176-0.0856-0.77459-0.25153-0.94988-0.45991-0.10089-0.11987-0.12078-0.17851-0.084-0.24722 0.0467-0.0874 1.14-0.88578 1.6269-1.1881 0.1324-0.0822 0.32249-0.21177 0.42236-0.28793 0.0998-0.0761 0.20267-0.13846 0.22841-0.13846 0.0258 0 0.16834-0.0963 0.31685-0.21396 0.14854-0.11772 0.43273-0.33857 0.6316-0.49088 0.4497-0.34439 1.2242-1.1649 1.3578-1.4382 0.20261-0.41464 0.25422-1.12 0.0959-1.3108-0.0951-0.11464-0.54258-0.39327-0.75096-0.46769-0.10021-0.0358-0.55897-0.0754-1.0639-0.0919zm-21.503 0.39076c0.12148-0.0146 0.86826 0.50128 1.1945 0.82954 0.54271 0.54613 1.1385 1.3736 1.6694 2.3187 0.39515 0.70341 0.69339 1.6738 0.54359 1.7688-0.0787 0.0498-0.30671 0.0483-0.52432-4e-3 -0.41427-0.099-1.4692-1.0222-1.9304-1.6894-0.31341-0.45332-0.67959-1.2059-0.78392-1.6112-0.18201-0.70701-0.27551-1.5496-0.17861-1.6095 3e-3 -3e-3 6e-3 -3e-3 0.01-3e-3z" fill="#216778" stroke-miterlimit="4" stroke-width=".050329"/> </g> </svg>